<?xml version="1.0"?>
<svg xmlns="http://www.w3.org/2000/svg" id="Layer_5" enable-background="new 0 0 64 64" height="512px" viewBox="0 0 64 64" width="512px"><g><path d="m49.123 47.288-10.259-4.197c-1.133-.463-1.864-1.553-1.864-2.777v-.718c3.077-2.126 5.427-5.126 6.759-8.596h.241c2.757 0 5-2.243 5-5v-8.597c0-5.01-2.244-9.679-6.156-12.81-2.898-2.317-6.536-3.593-10.247-3.593h-3.421c-6.09 0-11.677 3.067-14.946 8.204l-2.6 4.086 1.046.695c1.455.97 2.324 2.594 2.324 4.344v7.671c0 2.757 2.243 5 5 5h.241c1.332 3.471 3.682 6.47 6.759 8.596v.718c0 1.224-.731 2.313-1.864 2.776l-10.259 4.197c-6 2.455-9.877 8.231-9.877 14.713v1h54v-1c0-6.482-3.877-12.258-9.877-14.712zm-8.209 3.276-4.065 3.049 2.694-8.083.569.233zm-17.027-4.801.569-.233 2.694 8.083-4.065-3.049zm3.366 8.159 2.36 7.078h-.199l-4.127-4.127zm-.953-9.182c.147-.076.291-.157.428-.246l5.272 6.025 5.272-6.025c.137.089.281.169.428.246l-5.42 16.26h-.56zm10.447 9.182 1.966 2.951-4.127 4.127h-.199zm.253-33.922c-1.474 0-2.75.81-3.444 2h-3.112c-.694-1.19-1.97-2-3.444-2h-6v-4.981c2.8.115 5.519.751 8.094 1.896 3.115 1.383 6.423 2.085 9.831 2.085h4.075v1zm4 2v2c0 1.103-.897 2-2 2h-2c-1.103 0-2-.897-2-2s.897-2 2-2zm-12 2c0 1.103-.897 2-2 2h-2c-1.103 0-2-.897-2-2v-2h4c1.103 0 2 .897 2 2zm15.414 4.958c.379-1.482.586-3.025.586-4.607v-1.166c1.161.414 2 1.514 2 2.816 0 1.512-1.129 2.753-2.586 2.957zm-30.063-16.219 1.566-2.461c2.9-4.557 7.856-7.278 13.259-7.278h3.421c3.259 0 6.454 1.121 8.997 3.156 3.435 2.748 5.406 6.848 5.406 11.247v4.622c-.584-.442-1.257-.773-2-.924v-4.101h-6.075c-3.127 0-6.161-.644-9.019-1.914-3.115-1.384-6.423-2.086-9.906-2.086h-1v8.101c-.743.152-1.416.482-2 .924v-3.696c0-2.183-.979-4.225-2.649-5.59zm2.649 13.261c0-1.302.839-2.402 2-2.816v1.166c0 1.582.207 3.126.586 4.608-1.457-.204-2.586-1.445-2.586-2.958zm4-1.649v-.351c0 2.206 1.794 4 4 4h2c2.206 0 4-1.794 4-4h2c0 2.206 1.794 4 4 4h2c2.206 0 4-1.794 4-4v.351c0 7.023-4.406 13.247-11 15.592-6.594-2.345-11-8.569-11-15.592zm10.684 17.597.316.106.316-.105c.947-.316 1.855-.702 2.719-1.152.08.835.353 1.623.804 2.297l-3.839 4.387-3.84-4.388c.45-.674.724-1.462.804-2.297.864.45 1.773.837 2.72 1.152zm-16.049 7.192 6.076-2.486-.797 4.782 3.729 2.797-1.931 2.895 3.874 3.872h-9.586v-6h-2v6h-7.965c.373-5.255 3.665-9.842 8.6-11.86zm33.365 11.86v-6h-2v6h-9.586l3.873-3.873-1.931-2.895 3.729-2.797-.797-4.782 6.076 2.486c4.935 2.019 8.227 6.605 8.6 11.86h-7.964z" data-original="#000000" class="active-path" data-old_color="#000000" fill="#264653"/><path d="m36 32h-2c0 1.103-.897 2-2 2s-2-.897-2-2h-2c0 2.206 1.794 4 4 4s4-1.794 4-4z" data-original="#000000" class="active-path" data-old_color="#000000" fill="#264653"/><path d="m39.095 9.278c.821.658 1.533 1.427 2.116 2.284l1.654-1.125c-.695-1.022-1.543-1.937-2.52-2.72-2.192-1.752-4.944-2.717-7.748-2.717h-1.597v2h1.597c2.352 0 4.661.81 6.498 2.278z" data-original="#000000" class="active-path" data-old_color="#000000" fill="#264653"/><path d="m42.77 15.21 1.955-.42c-.16-.745-.389-1.478-.68-2.175l-1.846.77c.244.585.436 1.199.571 1.825z" data-original="#000000" class="active-path" data-old_color="#000000" fill="#264653"/></g> </svg>
